
        <svg xmlns="http://www.w3.org/2000/svg" xmlns:xlink="http://www.w3.org/1999/xlink" version="1.1" width="3187.5" height="565.8295167339006" viewBox="0 0 3187.5 565.8295167339006">
			
			<g transform="scale(9.375) translate(10, 10)">
				<defs id="SvgjsDefs1379"/><g id="SvgjsG1380" featureKey="symbolFeature-0" transform="matrix(1.3008975728759997,0,0,1.3008975728759997,-15.044883606330401,-44.8679545094762)" fill="#fff"><path xmlns="http://www.w3.org/2000/svg" d="M29.399,57.112c0.615,0.308,1.077,0.846,1.077,1.383c0,1.039-1.038,1.961-1.999,1.462l-15.223-7.881  c-0.846-0.499-1.576-0.808-1.576-1.884c0-1.115,0.692-1.385,1.576-1.922l15.223-7.881c1.038-0.346,1.999,0.424,1.999,1.462  c0,0.575-0.461,1.114-1.077,1.423l-13.761,6.918L29.399,57.112z"/><path xmlns="http://www.w3.org/2000/svg" d="M29.033,60.209c-0.208,0-0.413-0.052-0.608-0.152l-15.223-7.881c-0.086-0.05-0.165-0.095-0.242-0.141  c-0.748-0.431-1.395-0.804-1.395-1.843c0-1.057,0.594-1.406,1.346-1.849c0.093-0.054,0.187-0.11,0.284-0.169l15.229-7.885  c0.195-0.066,0.377-0.097,0.558-0.097c0.9,0,1.606,0.728,1.606,1.658c0,0.587-0.437,1.172-1.139,1.522l-13.562,6.818l13.562,6.818  c0.691,0.346,1.139,0.93,1.139,1.484C30.588,59.407,29.861,60.209,29.033,60.209z M28.982,40.419c-0.156,0-0.314,0.026-0.47,0.078  L13.306,48.37c-0.091,0.057-0.188,0.113-0.281,0.167c-0.743,0.439-1.234,0.728-1.234,1.655c0,0.91,0.537,1.219,1.281,1.648  c0.079,0.045,0.158,0.09,0.239,0.139l15.217,7.877c0.162,0.084,0.332,0.127,0.504,0.127c0.697,0,1.33-0.709,1.33-1.488  c0-0.465-0.407-0.98-1.014-1.283l-13.962-7.02l13.962-7.02c0.616-0.308,1.014-0.828,1.014-1.321  C30.363,41.048,29.756,40.419,28.982,40.419z"/><path xmlns="http://www.w3.org/2000/svg" d="M46.385,64.416c-0.231,0.691-0.922,1.077-1.614,0.961c-0.769-0.153-1.269-0.885-1.154-1.692  c0-0.076,0.039-0.191,0.077-0.307l9.88-27.831c0.23-0.692,0.922-1.038,1.614-0.923c0.73,0.154,1.269,0.885,1.153,1.652  c0,0.078-0.039,0.193-0.077,0.27L46.385,64.416z"/><path xmlns="http://www.w3.org/2000/svg" d="M45.016,65.511c-0.088,0-0.177-0.008-0.263-0.022c-0.837-0.167-1.371-0.949-1.247-1.819  c-0.001-0.076,0.038-0.193,0.079-0.318l9.883-27.842c0.207-0.618,0.778-1.02,1.457-1.02c0.094,0,0.188,0.009,0.281,0.023  c0.812,0.172,1.369,0.97,1.247,1.781c0.001,0.086-0.047,0.22-0.087,0.302l-9.875,27.856C46.281,65.084,45.688,65.511,45.016,65.511z   M54.925,34.715c-0.58,0-1.068,0.34-1.244,0.867l-9.88,27.833c-0.035,0.104-0.07,0.213-0.07,0.27  c-0.108,0.767,0.349,1.439,1.062,1.582c0.071,0.012,0.147,0.018,0.223,0.018c0.575,0,1.083-0.363,1.263-0.904l9.881-27.872  c0.041-0.085,0.07-0.182,0.07-0.231c0.105-0.712-0.373-1.396-1.064-1.543C55.089,34.722,55.007,34.715,54.925,34.715z"/><path xmlns="http://www.w3.org/2000/svg" d="M84.362,50.192L70.6,43.274c-0.614-0.309-1.075-0.848-1.075-1.423c0-1.038,1.037-1.962,1.998-1.462l15.223,7.881  c0.885,0.537,1.576,0.807,1.576,1.922c0,1.076-0.73,1.385-1.576,1.884l-15.223,7.881c-0.961,0.499-1.998-0.423-1.998-1.462  c0-0.537,0.461-1.075,1.075-1.383L84.362,50.192z"/><path xmlns="http://www.w3.org/2000/svg" d="M70.967,60.209c-0.828,0-1.556-0.802-1.556-1.714c0-0.555,0.447-1.139,1.139-1.484l13.562-6.818L70.55,43.374  c-0.702-0.352-1.139-0.936-1.139-1.522c0-0.913,0.728-1.714,1.556-1.714c0.209,0,0.413,0.051,0.608,0.152l15.223,7.881  c0.104,0.062,0.198,0.119,0.29,0.173c0.753,0.442,1.347,0.792,1.347,1.849c0,1.039-0.646,1.412-1.395,1.843  c-0.078,0.046-0.157,0.091-0.237,0.138l-15.228,7.884C71.38,60.157,71.176,60.209,70.967,60.209z M70.967,40.363  c-0.696,0-1.33,0.709-1.33,1.488c0,0.493,0.397,1.013,1.014,1.321l13.962,7.02l-13.962,7.02c-0.606,0.305-1.014,0.82-1.014,1.283  c0,0.779,0.634,1.488,1.33,1.488c0.172,0,0.342-0.043,0.504-0.127l15.223-7.88c0.075-0.046,0.155-0.091,0.233-0.136  c0.744-0.43,1.282-0.738,1.282-1.648c0-0.928-0.491-1.216-1.235-1.655c-0.093-0.054-0.188-0.11-0.287-0.17l-15.216-7.876  C71.309,40.405,71.139,40.363,70.967,40.363z"/></g><g id="SvgjsG1381" featureKey="nameFeature-0" transform="matrix(0.8956784566821671,0,0,0.8956784566821671,120.2995386580202,-2.8134761504222094)" fill="#fff"><path d="M11.52 23.4 l0 -9.88 l-1.4 0 c-1.28 0 -3.68 0.04 -5.36 0.64 c-0.88 0.64 -2.64 3.08 -3.64 4.52 c-0.12 0.2 -0.24 0.32 -0.4 0.28 l-0.88 -0.32 c-0.16 -0.04 -0.2 -0.24 -0.16 -0.36 c0.44 -1.68 1.76 -6.96 1.92 -7.76 c0.12 -0.52 0.32 -0.68 0.6 -0.68 s0.4 0.16 0.76 0.6 c0.44 0.56 1.2 0.92 2.64 1 c2.12 0.12 3.8 0.24 7.96 0.24 l2.32 0 c4.36 0 6.08 -0.16 7.76 -0.24 c0.88 -0.04 2.44 -0.52 2.92 -1 c0.4 -0.4 0.64 -0.6 0.92 -0.6 s0.4 0.16 0.48 0.64 c0.12 0.88 0.88 5.84 1.2 7.96 c0.04 0.16 -0.04 0.32 -0.16 0.36 l-0.84 0.32 c-0.16 0.04 -0.24 -0.08 -0.4 -0.36 c-0.88 -1.44 -2.44 -3.52 -3.44 -4.48 c-1 -0.6 -4.56 -0.76 -5.48 -0.76 l-1.32 0 l0 11 c0 0.56 0 11.76 0.04 12.36 c0.08 1 0.4 1.6 1.36 1.6 l1.8 0 c0.36 0 0.4 0.12 0.4 0.4 l0 0.92 c0 0.2 -0.04 0.32 -0.4 0.32 c-0.4 0 -1.68 -0.12 -6.12 -0.12 c-4.24 0 -5.92 0.12 -6.48 0.12 c-0.32 0 -0.36 -0.16 -0.36 -0.48 l0 -0.76 c0 -0.28 0.04 -0.4 0.28 -0.4 l2.04 0 c0.8 0 1.28 -0.48 1.36 -1.2 c0.08 -0.84 0.08 -13.12 0.08 -13.88 z M45.08 30.04 l-9.16 0 l0 1.08 c0 4.16 2.36 6.2 5.28 6.2 c1.96 0 3.56 -0.92 4.36 -2.2 c0.08 -0.2 0.24 -0.24 0.4 -0.12 l0.68 0.36 c0.16 0.08 0.28 0.28 -0.08 0.96 c-0.72 1.48 -3.32 4.24 -7.08 4.24 c-2.56 0 -4.68 -0.44 -6 -1.88 c-2.04 -2.2 -2.72 -3.76 -2.76 -6.88 c0 -1.12 0 -3.24 1.8 -5.88 c1.44 -2.12 3.88 -3.28 6.96 -3.28 c6.48 0 6.84 6.2 6.84 6.84 c0 0.52 -0.36 0.56 -1.24 0.56 z M35.96 28.52 l3.84 0 c0.88 0 1.28 -0.2 1.28 -0.8 c0 -1.76 -0.72 -3.48 -1.96 -3.48 c-1.88 0 -2.88 1.48 -3.16 4.28 z M57.68 22.64 c5.24 0 6.4 2.64 6.4 3.88 c0 1.12 -0.8 1.88 -2.08 1.88 c-1.68 0 -2.56 -1.12 -2.88 -2.12 c-0.48 -1.44 -1.24 -1.92 -2.36 -1.92 c-1.08 0 -2.64 1.56 -2.64 4.08 s-0.08 4.32 1.28 6.8 c1 1.8 2.48 2.32 4.28 2.32 c1.84 0 2.72 -0.36 4 -1.28 c0.2 -0.12 0.32 -0.2 0.44 -0.04 l0.56 0.56 c0.12 0.16 0.08 0.32 -0.04 0.52 c-0.76 1.32 -3.88 3.24 -7.56 3.24 c-3 0 -5 -0.84 -6.28 -2.44 c-1.56 -1.92 -2.04 -3.48 -2.04 -5.52 c0 -2.72 0.88 -5.64 3 -7.6 c1.8 -1.64 3.76 -2.36 5.92 -2.36 z M73.28 28.32 l0 8.64 c0 1.2 0.24 1.64 0.6 1.64 l0.8 0 c0.2 0 0.32 0.08 0.32 0.32 l0 0.76 c0 0.28 -0.04 0.44 -0.28 0.44 c-0.32 0 -2.16 -0.12 -4.52 -0.12 c-2.8 0 -4.32 0.12 -4.68 0.12 c-0.16 0 -0.28 -0.12 -0.28 -0.4 l0 -0.8 c0 -0.28 0.16 -0.32 0.6 -0.32 l0.64 0 c0.64 0 1.24 -0.16 1.36 -0.68 c0.2 -0.72 0.2 -1.44 0.2 -2.64 l-0.08 -16.64 c0 -2 -0.52 -3.16 -1.88 -3.68 l-0.72 -0.24 c-0.24 -0.12 -0.32 -0.24 -0.32 -0.36 l0 -0.52 c0 -0.16 0.12 -0.32 0.68 -0.48 c2.2 -0.64 3.64 -1.28 6.04 -2.44 c0.52 -0.24 0.84 -0.4 1.24 -0.4 c0.36 0 0.44 0.32 0.36 1 s-0.12 8.8 -0.12 11.16 l0 2.4 l0.28 0 c0.96 -1.52 2.92 -2.44 5.12 -2.44 c1.8 0 2.84 0.52 4.08 1.56 c1.88 1.56 1.72 3.56 1.72 6.12 l0 2.48 c0 2 -0.08 4.44 -0.08 5.2 c0 0.56 0.8 0.6 1.28 0.6 l0.76 0 c0.32 0 0.44 0.08 0.44 0.28 l0 0.84 c0 0.24 -0.08 0.4 -0.32 0.4 c-0.28 0 -1.56 -0.12 -4.36 -0.12 c-2.76 0 -4.2 0.12 -4.56 0.12 c-0.28 0 -0.36 -0.12 -0.36 -0.44 l0 -0.76 c0 -0.2 0.04 -0.32 0.28 -0.32 l0.52 0 c0.36 0 0.88 -0.2 0.96 -0.76 c0.04 -0.56 0.12 -2.68 0.12 -3.88 l0 -2.44 c0 -1.96 0.12 -4.76 -0.92 -5.8 c-0.56 -0.56 -1.04 -0.76 -1.88 -0.76 c-0.88 0 -1.76 0.72 -2.36 1.4 c-0.32 0.4 -0.68 0.92 -0.68 1.96 z M95.36 23.12 l0.44 1.72 l0.32 0 c0.44 -0.52 1.16 -1.04 1.92 -1.44 c0.88 -0.48 1.76 -0.76 3.08 -0.76 c1.56 0 3.08 0.16 4.12 1.12 c1.68 1.56 1.8 2.56 1.8 4.56 l0 4.24 c0 1.36 -0.08 3.24 -0.16 4.64 c-0.04 1.2 0.6 1.4 0.96 1.4 l1.08 0 c0.36 0 0.44 0.12 0.44 0.36 l0 0.72 c0 0.28 -0.08 0.44 -0.32 0.44 c-0.28 0 -1.52 -0.12 -4.72 -0.12 c-2.64 0 -3.92 0.12 -4.2 0.12 c-0.24 0 -0.32 -0.12 -0.32 -0.44 l0 -0.72 c0 -0.28 0.12 -0.36 0.52 -0.36 l0.44 0 c0.28 0 0.64 -0.2 0.72 -0.92 c0.16 -1.04 0.24 -2.32 0.24 -4.16 l0 -4.28 c0 -1.52 -0.12 -2.56 -0.96 -3.32 c-0.72 -0.64 -1.28 -0.72 -1.96 -0.72 c-0.72 0 -1.24 0.2 -2.04 0.8 c-0.48 0.36 -0.8 1.44 -0.8 3.08 l-0.08 8.2 c0 0.72 0.28 1.32 0.64 1.32 l0.52 0 c0.32 0 0.4 0.12 0.4 0.4 l0 0.76 c0 0.24 -0.08 0.36 -0.28 0.36 c-0.28 0 -1.36 -0.12 -4 -0.12 c-2.84 0 -4.12 0.12 -4.36 0.12 c-0.2 0 -0.28 -0.12 -0.28 -0.36 l0 -0.8 c0 -0.24 0.08 -0.36 0.4 -0.36 l0.6 0 c0.44 0 1.12 -0.12 1.12 -0.8 l0 -8.88 c0 -1.2 -0.68 -1.88 -1.6 -2.32 l-0.36 -0.16 c-0.24 -0.12 -0.28 -0.28 -0.28 -0.44 l0 -0.36 c0 -0.2 0.16 -0.32 0.36 -0.4 l5.12 -2.32 c0.32 -0.12 0.6 -0.28 0.92 -0.28 c0.24 0 0.48 0.2 0.56 0.48 z M120.28 40.56 c-2.92 0 -4.92 -0.6 -6.96 -2.92 c-1.52 -1.68 -2.12 -3.8 -2.12 -6.32 c0 -1.8 1 -4.76 3.44 -6.64 c2.04 -1.6 4.08 -2.04 5.96 -2.04 c2.76 0 4.64 0.84 6.44 2.52 c1.96 1.76 2.76 3.92 2.76 6.36 c0 2.32 -1 4.56 -2.56 6.24 c-1.92 2 -4.24 2.8 -6.96 2.8 z M120.52 38.88 c2.2 0 3.2 -3.24 3.2 -7.64 c0 -4.64 -1.6 -6.92 -3.36 -6.92 c-1 0 -1.64 0.28 -2.16 1.08 c-0.8 1.24 -1.32 2.96 -1.32 6.2 c0 2.32 0.2 3.84 1 5.56 c0.52 1.08 1.16 1.72 2.64 1.72 z M157.32 32 l0 -3.64 c0 -3.56 -0.04 -5.52 -0.12 -7.52 c-0.04 -1.56 -0.24 -5.48 -0.36 -6.08 c-0.24 -1 -1.2 -1.56 -2.12 -1.56 l-1.28 0 c-0.2 0 -0.24 -0.12 -0.24 -0.36 l0 -1 c0 -0.2 0.04 -0.28 0.36 -0.28 c0.44 0 1.72 0.12 4.68 0.12 c2.4 0 3.36 -0.12 3.8 -0.12 c0.36 0 0.4 0.08 0.4 0.32 l0 0.96 c0 0.2 -0.04 0.36 -0.2 0.36 l-1.12 0 c-0.68 0 -1.08 0.68 -1.2 2.12 c-0.28 2.68 -0.92 11.72 -0.92 17 l0 6.84 c0 0.6 -0.04 1.32 -0.6 1.32 c-0.6 0 -1.12 -0.2 -1.56 -0.64 c-0.68 -0.64 -2.64 -2.76 -5.04 -5.6 c-2.88 -3.4 -6.08 -7.24 -6.84 -8.12 c-0.68 -0.8 -6.2 -7.68 -7.12 -9 l-0.32 0 l0 8.08 c0 3.32 0.36 8.24 0.4 9.76 c0.08 2.32 0.8 3.52 2.48 3.52 l1 0 c0.28 0 0.32 0.12 0.32 0.36 l0 0.96 c0 0.24 -0.04 0.32 -0.32 0.32 c-0.4 0 -2.8 -0.12 -4.68 -0.12 c-1.24 0 -4 0.12 -4.4 0.12 c-0.16 0 -0.2 -0.08 -0.2 -0.36 l0 -1.04 c0 -0.12 0.04 -0.24 0.24 -0.24 l1.4 0 c0.88 0 1.52 -1.28 1.72 -3.96 c0.04 -0.76 0.36 -7.16 0.36 -13.08 l0 -3.6 c0 -2.36 -1.44 -4.6 -3.44 -4.64 l-1 -0.04 c-0.2 0 -0.24 -0.16 -0.24 -0.28 l0 -1.08 c0 -0.16 0.04 -0.24 0.24 -0.24 s0.52 0.04 1.28 0.04 c0.8 0.04 2.08 0.08 4.16 0.08 c1.36 0 2.56 -0.08 3.04 -0.08 c0.52 0 0.84 0.16 1.16 0.52 c0.2 0.24 8.08 9.88 9.28 11.36 c0.56 0.68 6.4 8 6.84 8.52 l0.16 0 z M178.96 30.04 l-9.16 0 l0 1.08 c0 4.16 2.36 6.2 5.28 6.2 c1.96 0 3.56 -0.92 4.36 -2.2 c0.08 -0.2 0.24 -0.24 0.4 -0.12 l0.68 0.36 c0.16 0.08 0.28 0.28 -0.08 0.96 c-0.72 1.48 -3.32 4.24 -7.08 4.24 c-2.56 0 -4.68 -0.44 -6 -1.88 c-2.04 -2.2 -2.72 -3.76 -2.76 -6.88 c0 -1.12 0 -3.24 1.8 -5.88 c1.44 -2.12 3.88 -3.28 6.96 -3.28 c6.48 0 6.84 6.2 6.84 6.84 c0 0.52 -0.36 0.56 -1.24 0.56 z M169.84 28.52 l3.84 0 c0.88 0 1.28 -0.2 1.28 -0.8 c0 -1.76 -0.72 -3.48 -1.96 -3.48 c-1.88 0 -2.88 1.48 -3.16 4.28 z M180.72 24.240000000000002 l0 -0.84 c0 -0.2 0.04 -0.32 0.24 -0.32 c0.56 0 1.36 0.12 4.76 0.12 c2 0 2.96 -0.12 3.56 -0.12 c0.24 0 0.32 0.08 0.32 0.32 l0 0.88 c0 0.2 -0.04 0.32 -0.32 0.32 l-0.52 0 c-0.36 0 -0.52 0.36 -0.36 0.92 l2.72 8.28 l0.24 0 l2.44 -6.24 c0.2 -0.56 0.04 -1.84 -0.36 -2.36 c-0.24 -0.32 -0.68 -0.36 -1.04 -0.36 l-0.28 0 c-0.24 0 -0.32 -0.12 -0.32 -0.32 l0 -0.88 c0 -0.24 0.12 -0.32 0.36 -0.32 c0.32 0 1.6 0.12 4.12 0.12 c2.32 0 3.2 -0.12 3.52 -0.12 c0.28 0 0.36 0.08 0.36 0.24 l0 0.88 c0 0.2 -0.04 0.4 -0.24 0.4 l-0.56 0 c-0.32 0 -0.68 0.4 -0.52 0.88 l2.84 7.88 l0.16 0 l2.16 -6.08 c0.76 -2.08 0.2 -2.92 -0.88 -2.92 l-0.56 0 c-0.2 0 -0.24 -0.12 -0.24 -0.32 l0 -0.92 c0 -0.2 0.12 -0.28 0.28 -0.28 c0.24 0 1.44 0.12 3.68 0.12 c1.72 0 2.44 -0.12 2.92 -0.12 c0.2 0 0.28 0.12 0.28 0.36 l0 0.84 c0 0.2 -0.08 0.32 -0.28 0.32 l-0.4 0 c-0.64 0 -1.36 0.24 -1.64 0.84 c-0.32 0.68 -5.52 13.24 -6.16 14.64 c-0.2 0.44 -0.6 0.52 -0.92 0.52 c-0.44 0 -0.6 -0.28 -0.88 -0.96 l-4.04 -10.28 l-0.24 0 l-4.48 10.6 c-0.2 0.44 -0.56 0.64 -0.96 0.64 s-0.6 -0.32 -0.8 -0.8 l-5.8 -14.12 c-0.32 -0.8 -0.92 -1.08 -1.4 -1.08 l-0.48 0 c-0.24 0 -0.28 -0.12 -0.28 -0.36 z M221.84 24.240000000000002 l0.56 2.96 c0.04 0.2 0 0.28 -0.16 0.36 l-0.72 0.32 c-0.12 0.08 -0.24 0.04 -0.4 -0.12 l-2.24 -2.4 c-0.52 -0.52 -1.28 -1.16 -2.48 -1.16 s-2.36 0.8 -2.36 2.16 c0.08 1.4 0.56 1.8 3.52 2.6 c1.96 0.52 2.92 0.8 4.12 2.08 c1.04 1.04 1.28 2 1.28 3.4 c0 3.56 -2.8 6.12 -7.16 6.12 c-2.24 0 -4.2 -0.8 -4.68 -1.16 c-0.16 -0.12 -0.2 -0.28 -0.24 -0.52 l-0.52 -3.84 c0 -0.2 0.12 -0.28 0.28 -0.32 l0.72 -0.2 c0.12 -0.04 0.2 0 0.28 0.16 l1.6 2.36 c0.72 1.04 1.64 2.04 3.48 2.04 c1.48 0 2.36 -1.04 2.36 -2.44 c0 -1.6 -1.16 -2.12 -3.76 -2.92 c-2.84 -0.84 -4.88 -2.2 -4.88 -5.08 c0 -1.88 0.56 -3.44 2.08 -4.56 c1.6 -1.16 2.72 -1.44 4.4 -1.44 c2.16 0 3.48 0.48 4.2 0.84 c0.6 0.28 0.68 0.48 0.72 0.76 z"/></g>
			</g>
		</svg>
	